<?xml version="1.0" encoding="utf-8"?>
<!-- Generator: Adobe Illustrator 16.0.3, SVG Export Plug-In . SVG Version: 6.00 Build 0)  -->
<!DOCTYPE svg PUBLIC "-//W3C//DTD SVG 1.1//EN" "http://www.w3.org/Graphics/SVG/1.1/DTD/svg11.dtd">
<svg version="1.1" id="Layer_1" xmlns="http://www.w3.org/2000/svg" xmlns:xlink="http://www.w3.org/1999/xlink" x="0px" y="0px"
	 width="173.274px" height="173.28px" viewBox="211.003 334.305 173.274 173.28"
	 enable-background="new 211.003 334.305 173.274 173.28" xml:space="preserve">
<path fill="#FFFFFF" d="M297.64,470.552c-3.271-0.047-6.391-1.385-8.681-3.721l-74.41-74.41c-2.279-2.324-3.552-5.451-3.546-8.707
	c0.006-3.253,1.29-6.377,3.579-8.693c2.286-2.313,5.393-3.637,8.648-3.684H372.05c3.256,0.046,6.361,1.37,8.648,3.684
	c2.288,2.316,3.573,5.439,3.579,8.693c0.006,3.255-1.268,6.383-3.546,8.707l-74.41,74.41
	C304.031,469.167,300.911,470.505,297.64,470.552L297.64,470.552z"/>
</svg>
