<?xml version="1.0" encoding="UTF-8"?>
<svg version="1.1" viewBox="0 0 1200 1200" xmlns="http://www.w3.org/2000/svg" fill="#fff">
 <path d="m1123.8 604.6c-22.594 26.156-60.984 29.859-87.938 9.2812v418.13c0 46.406-37.594 84-84 84h-130.4c-46.406 0-84-37.594-84-84v-217.6c0-46.359-37.641-84-84-84h-106.97c-46.359 0-84 37.641-84 84v217.6c0 46.406-37.594 84-84 84h-130.4c-46.406 0-84-37.594-84-84v-418.13c-26.953 20.578-65.344 16.875-87.938-9.2812-23.719-27.422-21.047-69.234 5.9531-93.328l449.21-400.97c39.281-35.062 98.062-35.062 137.34 0l449.21 400.97c27 24.094 29.672 65.906 5.9531 93.328z"/>
</svg>
