<?xml version="1.0" encoding="utf-8"?>
<!-- Generator: Adobe Illustrator 16.0.3, SVG Export Plug-In . SVG Version: 6.00 Build 0)  -->
<!DOCTYPE svg PUBLIC "-//W3C//DTD SVG 1.1//EN" "http://www.w3.org/Graphics/SVG/1.1/DTD/svg11.dtd">
<svg version="1.1" id="Layer_1" xmlns="http://www.w3.org/2000/svg" xmlns:xlink="http://www.w3.org/1999/xlink" x="0px" y="0px"
	 width="173.7px" height="173.7px" viewBox="210.816 334.059 173.7 173.7" enable-background="new 210.816 334.059 173.7 173.7"
	 xml:space="preserve">
<path fill="#FFFFFF" d="M334.845,507.757c-3.271-0.047-6.391-1.385-8.682-3.721l-74.409-74.41c-2.349-2.33-3.668-5.5-3.668-8.805
	c0-3.306,1.319-6.477,3.668-8.806l74.409-74.41c2.345-2.298,5.506-3.573,8.788-3.544c3.283,0.027,6.422,1.356,8.726,3.695
	c2.307,2.339,3.589,5.496,3.569,8.778v148.82c0,3.289-1.306,6.443-3.633,8.768C341.288,506.451,338.133,507.757,334.845,507.757
	L334.845,507.757z"/>
</svg>
