<?xml version="1.0" encoding="utf-8"?>
<!-- Generator: Adobe Illustrator 16.0.3, SVG Export Plug-In . SVG Version: 6.00 Build 0)  -->
<!DOCTYPE svg PUBLIC "-//W3C//DTD SVG 1.1//EN" "http://www.w3.org/Graphics/SVG/1.1/DTD/svg11.dtd">
<svg version="1.1" id="Layer_1" xmlns="http://www.w3.org/2000/svg" xmlns:xlink="http://www.w3.org/1999/xlink" x="0px" y="0px"
	 width="173.7px" height="173.694px" viewBox="210.764 334.133 173.7 173.694"
	 enable-background="new 210.764 334.133 173.7 173.694" xml:space="preserve">
<path fill="#FFFFFF" d="M260.435,334.133c3.271,0.046,6.392,1.384,8.682,3.721l74.409,74.41c2.349,2.33,3.669,5.5,3.669,8.806
	c0,3.305-1.32,6.475-3.669,8.805l-74.409,74.41c-2.345,2.297-5.506,3.572-8.788,3.543c-3.282-0.025-6.422-1.355-8.726-3.695
	c-2.306-2.338-3.589-5.494-3.569-8.777v-148.82c0-3.289,1.306-6.443,3.633-8.769C253.991,335.439,257.147,334.133,260.435,334.133
	L260.435,334.133z"/>
</svg>
