<?xml version="1.0" encoding="utf-8"?>
<!-- Generator: Adobe Illustrator 16.0.3, SVG Export Plug-In . SVG Version: 6.00 Build 0)  -->
<!DOCTYPE svg PUBLIC "-//W3C//DTD SVG 1.1//EN" "http://www.w3.org/Graphics/SVG/1.1/DTD/svg11.dtd">
<svg version="1.1" id="Layer_1" xmlns="http://www.w3.org/2000/svg" xmlns:xlink="http://www.w3.org/1999/xlink" x="0px" y="0px"
	 width="173.28px" height="173.28px" viewBox="211 334.305 173.28 173.28" enable-background="new 211 334.305 173.28 173.28"
	 xml:space="preserve">
<path fill="#FFFFFF" d="M297.64,371.338c3.271,0.046,6.391,1.384,8.682,3.721l74.409,74.409c2.279,2.324,3.553,5.451,3.547,8.707
	c-0.006,3.254-1.291,6.377-3.579,8.693c-2.287,2.313-5.394,3.637-8.648,3.684H223.23c-3.255-0.047-6.361-1.371-8.648-3.684
	c-2.288-2.316-3.573-5.439-3.579-8.693c-0.006-3.256,1.268-6.383,3.546-8.707l74.41-74.409
	C291.249,372.722,294.368,371.385,297.64,371.338L297.64,371.338z"/>
</svg>
