<?xml version="1.0" encoding="UTF-8"?>
<svg id="Layer_1" xmlns="http://www.w3.org/2000/svg" version="1.1" xmlns:inkscape="http://www.inkscape.org/namespaces/inkscape" xmlns:sodipodi="http://sodipodi.sourceforge.net/DTD/sodipodi-0.dtd" xmlns:svg="http://www.w3.org/2000/svg" viewBox="0 0 33.25 36">
  <!-- Generator: Adobe Illustrator 30.1.0, SVG Export Plug-In . SVG Version: 2.1.1 Build 136)  -->
  <sodipodi:namedview id="namedview4" bordercolor="#2a2a2a" borderopacity="0.25" inkscape:current-layer="svg4" inkscape:cx="83" inkscape:cy="17.957784" inkscape:deskcolor="#d1d1d1" inkscape:pagecheckerboard="0" inkscape:pageopacity="0.0" inkscape:showpageshadow="2" inkscape:window-height="1010" inkscape:window-maximized="1" inkscape:window-width="1920" inkscape:window-x="-6" inkscape:window-y="-6" inkscape:zoom="9.1325301" pagecolor="#ffffff"/>
  <path  fill="#1a1a1a" d="M33.22,11.63c-.12-1.88-1.12-3.56-2.68-4.62h.01s-.18-.11-.18-.11c-.07-.05-.14-.1-.21-.14L19.69.79c-1.91-1.06-4.23-1.06-6.15,0L3.07,6.76C1.29,7.8.14,9.63.02,11.68c0,.11-.02.22-.02.33h0v11.98h0c0,.12.02.22.02.33.11,2.05,1.26,3.88,3.05,4.92l10.47,5.97c1.92,1.06,4.24,1.06,6.15,0l10.48-5.97c.07-.04.14-.1.21-.14l.18-.1h-.01c1.56-1.07,2.56-2.75,2.68-4.62h.03s0-.38,0-.38v-12.37h-.03Z"/>
</svg>