<?xml version="1.0" encoding="UTF-8"?>
<svg id="Layer_1" xmlns="http://www.w3.org/2000/svg" version="1.1" viewBox="0 0 107.92 18.29">
  <!-- Generator: Adobe Illustrator 29.8.1, SVG Export Plug-In . SVG Version: 2.1.1 Build 2)  -->
  <defs>
    <style>
      .st0 {
        fill: #fff;
      }
    </style>
  </defs>
  <path class="st0" d="M57.64,7.61c-1.17-.65-2.95-.96-5.43-.96h-7.14c-3.77,0-3.77-.6-3.77-1.69s.34-1.39.97-1.61c.87-.31,2.31-.37,4.68-.37h11.62c.27,0,.49-.22.49-.49V.49c0-.27-.22-.49-.49-.49h-12.81c-4.08,0-8.06.37-8.06,4.81,0,2.26.79,3.58,2.56,4.25,1.58.61,3.99.72,7.89.72h4.58c3.1,0,3.23.51,3.23,1.67,0,1.33-.18,2.08-3.87,2.08h-13.34c-.27,0-.49.22-.49.49v2c0,.27.22.49.49.49h12.97c1.71,0,3.66-.05,5.16-.64,1.75-.68,2.67-2.04,2.67-3.95v-.96c0-1.52-.65-2.65-1.92-3.36h0ZM106,7.61c-1.17-.65-2.95-.96-5.43-.96h-7.14c-3.77,0-3.77-.6-3.77-1.69s.34-1.39.97-1.61c.87-.31,2.31-.37,4.68-.37h11.62c.27,0,.49-.22.49-.49V.49c0-.27-.22-.49-.49-.49h-12.81c-4.08,0-8.06.37-8.06,4.81,0,2.26.79,3.58,2.56,4.25,1.58.61,3.99.72,7.89.72h4.58c3.1,0,3.23.51,3.23,1.67,0,1.33-.18,2.08-3.87,2.08h-13.34c-.27,0-.49.22-.49.49v2c0,.27.22.49.49.49h12.97c1.71,0,3.66-.05,5.16-.64,1.75-.68,2.67-2.04,2.67-3.95v-.96c0-1.52-.65-2.65-1.92-3.36h0ZM84.74,0h-3.81c-.11,0-.23.04-.31.12l-7.8,6.71L65.02.12c-.09-.08-.2-.12-.31-.12h-3.81c-.21,0-.39.13-.46.33-.07.2-.01.41.14.55l10.36,8.87v6.27c0,.27.22.5.49.5h2.77c.27,0,.49-.22.49-.5v-6.27L85.05.88c.16-.14.21-.35.14-.55-.07-.2-.25-.33-.46-.33h0ZM28.35,6.45h5.33c.25,0,.45.2.45.45v2.72c0,.25-.2.45-.45.45h-5.33c-.25,0-.45-.2-.45-.45v-2.72c0-.25.2-.45.45-.45ZM17.29,0H7.02C2.1,0,0,1.86,0,6.23v4.06c0,4.37,2.1,6.23,7.02,6.23l6.74-.03v1.31c0,.27.22.48.48.48h2.65c.27,0,.48-.22.48-.48v-1.33c.25,0,.67,0,1.36-.02,1.81-.03,3.35-.68,4.34-1.85.84-1,1.24-2.37,1.24-4.31v-4.06C24.32,1.86,22.22,0,17.29,0h0ZM16.9,11.77h-2.65c-.27,0-.48.22-.48.48v1.23l-6.49.07c-2.11,0-3.52-.42-3.52-2.49v-5.58c0-1.5.6-2.49,3.52-2.49h9.78c2.11,0,3.52.42,3.52,2.49v5.58c0,1.42-.99,2.26-1.96,2.37-.59.06-.99.07-1.24.06v-1.22c0-.27-.22-.48-.48-.48,0,0,0,0,0,0Z"/>
</svg>