<?xml version="1.0" encoding="UTF-8"?>
<svg width="1200pt" height="1200pt" version="1.1" viewBox="0 0 1200 1200" xmlns="http://www.w3.org/2000/svg">
 <path fill="#fff" d="m825.71 229.26-196.45 156.32c-5.5781 4.4062-12.703 5.2031-19.078 2.1562-6.375-3.0938-10.219-9.1406-10.219-16.266v-81.234c-171.1 0-309.79 138.71-309.79 309.79 0 80.156 30.422 153.24 80.391 208.22 5.3906 5.9531 7.8281 13.078 7.1719 21.047s-4.1719 14.625-10.453 19.641l-73.875 58.781c-11.672 9.2812-28.5 7.7812-38.391-3.375-71.625-81.094-115.08-187.64-115.08-304.31 0-254.02 205.92-459.98 459.98-459.98v-81.234c0-7.0781 3.7969-13.172 10.219-16.266 6.375-3.0938 13.547-2.2969 19.078 2.1562l196.45 156.32c4.4531 3.5625 6.7969 8.4375 6.7969 14.109 0 5.6719-2.3438 10.594-6.7969 14.109zm6.9375 121.82c-6.2812 4.9688-9.7969 11.625-10.453 19.641-0.65625 7.9688 1.7812 15.141 7.1719 21.047 49.969 55.031 80.391 128.06 80.391 208.22 0 171.1-138.71 309.79-309.79 309.79v-81.234c0-7.0781-3.7969-13.172-10.219-16.266-6.375-3.0938-13.547-2.2969-19.078 2.1562l-196.45 156.32c-4.4531 3.5625-6.7969 8.4375-6.7969 14.109s2.3438 10.594 6.7969 14.109l196.45 156.32c5.5781 4.4062 12.703 5.2031 19.078 2.1562 6.375-3.0938 10.219-9.1406 10.219-16.266v-81.234c254.02 0 459.98-205.92 459.98-459.98 0-116.67-43.453-223.22-115.08-304.31-9.8438-11.156-26.719-12.656-38.391-3.375l-73.875 58.781z" fill-rule="evenodd"/>
</svg>
