<?xml version="1.0" encoding="UTF-8"?>
<svg  version="1.1" viewBox="0 0 1200 1200" xmlns="http://www.w3.org/2000/svg"  fill="#fff">
 <path d="m1066.7 50h-933.34c-46 0-83.332 37.332-83.332 83.332v933.33c0 46 37.332 83.332 83.332 83.332h933.33c46 0 83.332-37.332 83.332-83.332l0.003906-933.33c0-46-37.332-83.332-83.332-83.332zm50 1016.7c0 27.668-22.332 50-50 50h-933.34c-27.668 0-50-22.332-50-50v-933.34c0-27.668 22.332-50 50-50h933.33c27.668 0 50 22.332 50 50v933.33zm-733.34-866.67c0 9.332-7.332 16.668-16.668 16.668h-150v150c0 9.332-7.332 16.668-16.668 16.668-9.332 0-16.668-7.332-16.668-16.668v-166.67c0-9.332 7.332-16.668 16.668-16.668h166.67c9.332 0 16.668 7.332 16.668 16.668zm633.33 0v166.67c0 9.332-7.332 16.668-16.668 16.668-9.332 0-16.668-7.332-16.668-16.668v-150h-150c-9.332 0-16.668-7.332-16.668-16.668 0-9.332 7.332-16.668 16.668-16.668h166.67c9.332 0 16.668 7.332 16.668 16.668zm-633.33 800c0 9.332-7.332 16.668-16.668 16.668h-166.67c-9.332 0-16.668-7.332-16.668-16.668v-166.67c0-9.332 7.332-16.668 16.668-16.668 9.332 0 16.668 7.332 16.668 16.668v150h150c9.332 0 16.668 7.332 16.668 16.668zm633.33-166.67v166.67c0 9.332-7.332 16.668-16.668 16.668h-166.67c-9.332 0-16.668-7.332-16.668-16.668 0-9.332 7.332-16.668 16.668-16.668h150v-150c0-9.332 7.332-16.668 16.668-16.668 9.332 0 16.668 7.332 16.668 16.668zm-300-233.33c0 9.332-7.332 16.668-16.668 16.668h-83.332v83.332c0 9.332-7.332 16.668-16.668 16.668-9.332 0-16.668-7.332-16.668-16.668v-83.332h-83.332c-9.332 0-16.668-7.332-16.668-16.668 0-9.332 7.332-16.668 16.668-16.668h83.332v-83.332c0-9.332 7.332-16.668 16.668-16.668 9.332 0 16.668 7.332 16.668 16.668v83.332h83.332c9.332 0 16.668 7.332 16.668 16.668z"/>
</svg>
