<?xml version="1.0" encoding="UTF-8"?>
<svg version="1.1" viewBox="0 0 1200 1200" xmlns="http://www.w3.org/2000/svg"  fill="#fff">
 <path d="m1066.7 33.332h-933.34c-55 0-100 45-100 100v933.33c0 55 45 100 100 100h933.33c55 0 100-45 100-100l0.003907-933.33c0-55-45-100-100-100zm33.332 1033.3c0 18.332-15 33.332-33.332 33.332l-933.34 0.003906c-18.332 0-33.332-15-33.332-33.332v-933.34c0-18.332 15-33.332 33.332-33.332h933.33c18.332 0 33.332 15 33.332 33.332v933.33zm-700-866.66c0 18.332-15 33.332-33.332 33.332h-133.33v133.33c0 18.332-15 33.332-33.332 33.332-18.332 0-33.332-15-33.332-33.332v-166.67c0-18.332 15-33.332 33.332-33.332h166.67c18.332 0 33.332 15 33.332 33.332zm633.33 0v166.67c0 18.332-15 33.332-33.332 33.332s-33.332-15-33.332-33.332v-133.33h-133.33c-18.332 0-33.332-15-33.332-33.332 0-18.332 15-33.332 33.332-33.332h166.67c18.332 0 33.332 15 33.332 33.332zm-633.33 800c0 18.332-15 33.332-33.332 33.332h-166.67c-18.332 0-33.332-15-33.332-33.332v-166.67c0-18.332 15-33.332 33.332-33.332s33.332 15 33.332 33.332v133.33h133.33c18.332 0 33.332 15 33.332 33.332zm633.33-166.67v166.67c0 18.332-15 33.332-33.332 33.332h-166.67c-18.332 0-33.332-15-33.332-33.332s15-33.332 33.332-33.332h133.33v-133.33c0-18.332 15-33.332 33.332-33.332 18.332 0 33.332 15 33.332 33.332zm-300-233.33c0 18.332-15 33.332-33.332 33.332h-66.668v66.668c0 18.332-15 33.332-33.332 33.332s-33.332-15-33.332-33.332v-66.668h-66.668c-18.332 0-33.332-15-33.332-33.332s15-33.332 33.332-33.332h66.668v-66.668c0-18.332 15-33.332 33.332-33.332s33.332 15 33.332 33.332v66.668h66.668c18.332 0 33.332 15 33.332 33.332z"/>
</svg>
