<?xml version="1.0" encoding="UTF-8"?>
<svg width="1200pt" height="1200pt" version="1.1" viewBox="0 0 1200 1200" xmlns="http://www.w3.org/2000/svg" fill="#fff">
 <path d="m1042.3 133.69h-261.61c-13.266 0-24 10.734-24 24s10.734 24 24 24h237.61v250.69c0 13.219 10.734 24 24 24s24-10.781 24-24v-274.69c0-6.375-2.5312-12.469-7.0312-16.969s-10.594-7.0312-16.969-7.0312z"/>
 <path d="m157.69 456.37c6.375 0 12.469-2.5312 16.969-7.0312s7.0312-10.641 7.0312-16.969v-250.69h237.61c13.266 0 24-10.734 24-24 0-13.266-10.734-24-24-24h-261.61c-13.266 0-24 10.734-24 24v274.69c0 6.3281 2.5312 12.469 7.0312 16.969s10.594 7.0312 16.969 7.0312z"/>
 <path d="m419.29 1018.3h-237.61v-224.58c0-13.266-10.734-24-24-24-13.266 0-24 10.734-24 24v248.58c0 6.375 2.5312 12.469 7.0312 16.969s10.594 7.0312 16.969 7.0312h261.61c13.266 0 24-10.734 24-24s-10.734-24-24-24z"/>
 <path d="m1042.3 769.74c-13.266 0-24 10.734-24 24v224.58h-237.61c-13.266 0-24 10.734-24 24s10.734 24 24 24h261.61c6.375 0 12.469-2.5312 16.969-7.0312s7.0312-10.594 7.0312-16.969v-248.58c0-6.375-2.5312-12.516-7.0312-17.016s-10.594-6.9844-16.969-6.9844z"/>
 <path d="m874.08 674.16c3.4688-12.797-4.125-25.969-16.922-29.438s-25.969 4.125-29.438 16.922c-18.328 67.406-65.625 123.24-129.19 152.29-63.516 29.062-136.69 28.406-199.74-1.7812-63-30.234-109.31-86.859-126.42-154.64-3.2344-12.844-16.266-20.625-29.109-17.391-12.891 3.2344-20.672 16.266-17.438 29.109 20.578 81.562 76.359 149.81 152.21 186.19 75.891 36.375 163.97 37.172 240.47 2.1562 76.547-35.016 133.5-102.23 155.58-183.42z"/>
 <path d="m830.26 552.42c2.2969 11.203 12.094 19.219 23.484 19.219 1.6406 0 3.2344-0.1875 4.8281-0.51562 6.2344-1.2656 11.719-4.9688 15.234-10.266 3.5156-5.3438 4.7344-11.812 3.4688-18.047-17.625-85.5-73.734-158.11-152.02-196.78-78.281-38.672-170.02-39.094-248.68-1.125-78.656 37.922-135.37 110.02-153.79 195.37-1.3594 6.2344-0.14062 12.75 3.2812 18.094 3.4688 5.3438 8.9062 9.0938 15.141 10.406 12.938 2.8125 25.734-5.4375 28.5-18.422 15.328-70.875 62.438-130.74 127.74-162.24 65.344-31.547 141.52-31.172 206.53 0.9375s111.61 92.391 126.28 163.4z"/>
 <path d="m637.78 508.82c50.344 20.859 74.25 78.562 53.391 128.95-20.859 50.344-78.562 74.25-128.95 53.391-50.344-20.859-74.25-78.562-53.391-128.95 20.859-50.344 78.562-74.25 128.95-53.391"/>
</svg>
