<?xml version="1.0" encoding="utf-8"?>
<!-- Generator: Adobe Illustrator 16.0.3, SVG Export Plug-In . SVG Version: 6.00 Build 0)  -->
<!DOCTYPE svg PUBLIC "-//W3C//DTD SVG 1.1//EN" "http://www.w3.org/Graphics/SVG/1.1/DTD/svg11.dtd">
<svg version="1.1" id="Layer_1" xmlns="http://www.w3.org/2000/svg" xmlns:xlink="http://www.w3.org/1999/xlink" x="0px" y="0px"
	 width="329.896px" height="239.928px" viewBox="132.691 301.328 329.896 239.928"
	 enable-background="new 132.691 301.328 329.896 239.928" xml:space="preserve">
<path fill="#FFFFFF" d="M202.981,301.373c-1.829,0.2-3.521,1.064-4.753,2.43c-1.232,1.364-1.919,3.133-1.929,4.972
	c-0.008,1.837,0.661,3.612,1.88,4.99l29.171,34.955c-48.874,19.475-79.742,54.438-92.437,67.103
	c-1.423,1.405-2.223,3.321-2.223,5.319c0,1.998,0.8,3.912,2.223,5.32c17.969,17.93,72.316,80.779,162.725,80.779
	c20.251,0,38.666-3.088,55.296-8.184l32.687,39.162c1.229,1.658,3.089,2.738,5.141,2.982c2.053,0.244,4.116-0.365,5.701-1.691
	c1.585-1.324,2.552-3.24,2.674-5.301c0.12-2.059-0.616-4.076-2.034-5.576l-29.172-34.955c48.865-19.512,79.743-54.559,92.433-67.223
	v0.002c1.422-1.406,2.225-3.32,2.225-5.319c0-1.998-0.803-3.915-2.225-5.319c-17.969-17.931-72.316-80.666-162.725-80.666
	c-20.209,0-38.577,3.232-55.178,8.299l-32.803-39.281v0.002c-1.595-2.019-4.115-3.077-6.677-2.806V301.373z M297.64,350.123
	c78.081,0,125.039,48.69,146.91,71.082c-15.52,15.889-43.716,44.971-86.573,60.555l-18.979-22.68
	c9.218-10.012,14.878-23.287,14.878-37.877c0-30.904-25.265-56.115-56.234-56.115c-10.967,0-21.196,3.184-29.874,8.65
	l-14.996-17.886C266.413,352.291,281.342,350.124,297.64,350.123L297.64,350.123z M237.309,360.645l18.979,22.68
	c-9.219,10.013-14.878,23.288-14.878,37.877c0,30.903,25.265,56.116,56.233,56.116c10.968,0,21.197-3.184,29.875-8.65l14.996,17.885
	c-13.641,3.563-28.578,5.729-44.869,5.729c-78.021,0-125.019-48.666-146.91-71.082C166.247,405.319,194.403,376.226,237.309,360.645
	L237.309,360.645z M297.64,380.052c22.863,0,41.237,18.335,41.237,41.15c0,10.042-3.567,19.192-9.489,26.303l-51.898-62.197
	c5.945-3.308,12.816-5.261,20.151-5.261L297.64,380.052z M265.892,394.899l51.898,62.196c-5.945,3.309-12.816,5.262-20.15,5.262
	c-22.864,0-41.238-18.336-41.238-41.15c0-10.042,3.568-19.192,9.49-26.303V394.899z"/>
</svg>
