<?xml version="1.0" encoding="utf-8"?>
<!-- Generator: Adobe Illustrator 16.0.3, SVG Export Plug-In . SVG Version: 6.00 Build 0)  -->
<!DOCTYPE svg PUBLIC "-//W3C//DTD SVG 1.1//EN" "http://www.w3.org/Graphics/SVG/1.1/DTD/svg11.dtd">
<svg version="1.1" id="Layer_1" xmlns="http://www.w3.org/2000/svg" xmlns:xlink="http://www.w3.org/1999/xlink" x="0px" y="0px"
	  viewBox="239.998 240 719.861 720.003" enable-background="new 239.998 240 719.861 720.003"
	 xml:space="preserve"  fill="#fff">
<path d="M955.2,928.8l-234-234c42-48,68.397-111.6,68.397-181.2c-1.199-150-123.6-273.6-274.8-273.6
	c-151.2,0-274.8,123.6-274.8,274.8s123.6,274.8,274.8,274.8c69.603,0,132-26.397,181.2-68.397l234,234
	c3.602,3.602,8.398,4.801,13.199,4.801s9.602-2.398,13.198-4.801c4.801-7.203,4.801-19.203-1.199-26.402H955.2z M514.8,753.6
	c-132,0-238.8-106.8-238.8-238.8S382.8,276,514.8,276s238.8,106.8,238.8,238.8C752.396,645.6,645.6,753.6,514.8,753.6z M619.2,532.8
	h-210c-9.602,0-18-8.398-18-18s8.398-18,18-18h210c9.602,0,18,8.398,18,18C637.2,524.397,630.001,532.8,619.2,532.8z"/>
</svg>
