<?xml version="1.0" encoding="UTF-8"?>
<svg id="Layer_1" xmlns="http://www.w3.org/2000/svg" version="1.1" xmlns:inkscape="http://www.inkscape.org/namespaces/inkscape" xmlns:sodipodi="http://sodipodi.sourceforge.net/DTD/sodipodi-0.dtd" xmlns:svg="http://www.w3.org/2000/svg" viewBox="0 0 112.44 18.25">
  <!-- Generator: Adobe Illustrator 29.7.0, SVG Export Plug-In . SVG Version: 2.1.1 Build 138)  -->
  <defs>
    <style>
      .st0 {
        fill: #fff;
      }
    </style>
  </defs>
  <sodipodi:namedview id="namedview4" bordercolor="#000000" borderopacity="0.25" inkscape:current-layer="svg4" inkscape:cx="83" inkscape:cy="17.957784" inkscape:deskcolor="#d1d1d1" inkscape:pagecheckerboard="0" inkscape:pageopacity="0.0" inkscape:showpageshadow="2" inkscape:window-height="1010" inkscape:window-maximized="1" inkscape:window-width="1920" inkscape:window-x="-6" inkscape:window-y="-6" inkscape:zoom="9.1325301" pagecolor="#ffffff"/>
  <path id="path3" class="st0" d="M35.88,9.43h-6.28v1.83h6.28v-1.83ZM60.07,7.87c-1.17-.64-2.98-.95-5.52-.95h-7.52c-4.17,0-4.37-.74-4.37-2.16,0-1.15.36-1.72,1.28-2.05.96-.34,2.52-.41,5.06-.41h2.7c6.67,0,6.68.45,6.73,2.61v.29h2.98v-.83c0-1.62-.53-2.64-1.73-3.32-1.25-.71-3.3-1.05-6.45-1.05h-5.47c-5.12,0-8.08.75-8.08,4.61,0,2.19.73,3.41,2.43,4.05,1.6.61,4.11.72,8.16.72h4.82c3.25,0,3.79.53,3.79,2.14,0,1.81-.62,2.56-4.47,2.56h-7.88c-3.21,0-3.85-.74-3.85-1.94v-1.38h-2.98v1.43c0,3.7,3.68,4.2,7.27,4.2h7.05c1.76,0,3.77-.05,5.29-.64,1.7-.65,2.56-1.91,2.56-3.74v-1c0-1.45-.59-2.48-1.81-3.14M76.07,7.26L67.57.19h-4.36l11.28,9.35v6.69h3.14v-6.69L88.92.19h-4.35l-8.5,7.07ZM110.65,7.87c-1.17-.64-2.98-.95-5.52-.95h-7.52c-4.17,0-4.37-.74-4.37-2.16,0-1.96.74-2.45,6.34-2.45h2.7c6.67,0,6.68.45,6.73,2.61v.29h2.98v-.83c0-1.62-.53-2.64-1.73-3.32-1.25-.71-3.3-1.05-6.45-1.05h-5.47c-5.12,0-8.08.75-8.08,4.61,0,2.19.73,3.41,2.43,4.05,1.6.61,4.1.72,8.16.72h4.82c3.25,0,3.79.53,3.79,2.14,0,1.81-.62,2.56-4.47,2.56h-7.88c-3.21,0-3.85-.74-3.85-1.94v-1.38h-2.99v1.43c0,3.7,3.68,4.2,7.27,4.2h7.05c1.76,0,3.77-.05,5.29-.64,1.69-.65,2.56-1.91,2.56-3.74v-1c0-1.45-.59-2.48-1.81-3.14M17.48,12.57h-3v5.68h3v-5.68h0Z"/>
  <path id="path4" class="st0" d="M17.8.01H6.99C2.02.01,0,1.77,0,6.09v4.22c0,4.32,2.03,6.08,6.99,6.08h5.99v-2.3h-5.74c-2.88,0-4.1-.89-4.1-2.99v-5.8c0-2.09,1.23-2.99,4.1-2.99h10.29c2.88,0,4.1.89,4.1,2.99v5.8c0,1.63-.77,2.54-2.42,2.85l-.25.05v2.35l.33-.03c2-.18,3.39-.76,4.27-1.78.82-.96,1.21-2.3,1.21-4.22v-4.22C24.79,1.78,22.76.01,17.8.01"/>
</svg>