<?xml version="1.0" encoding="UTF-8"?>
<svg id="Layer_1" xmlns="http://www.w3.org/2000/svg" version="1.1" viewBox="0 0 643.75 399.67">
  <!-- Generator: Adobe Illustrator 29.8.1, SVG Export Plug-In . SVG Version: 2.1.1 Build 2)  -->
  <defs>
    <style>
      .st0 {
        fill: #eee;
      }
    </style>
  </defs>
  <path class="st0" d="M321.91,0c-21.43,0-42.85,11.15-59.18,33.41l-132.37,116.5c-16.75,10.5-35.53,22.46-53.72,21.97H22l-9.47-.33c-6.72,1.15-12.38,7.34-12.53,12.82v30.94c1.94,8.03,5.93,11.41,12.53,12.82l9.47-.33h54.65c18.46,1.51,40.76,10.92,53.72,21.97l132.37,116.5c32.66,44.52,85.68,44.54,118.41.05l132.76-113.81c15.71-13.47,45.23-24.38,65.96-24.38,17.14.92,34.28,1.86,51.42,2.8,6.9,0,12.48-8.72,12.48-15.61v-30.94c0-6.9-5.57-15.62-12.48-15.62-17.14.92-34.28,1.89-51.42,2.8-20.73,0-50.24-10.92-65.96-24.39l-132.76-113.8C364.77,11.12,343.33,0,321.91,0h0ZM322.57,58.44c9.82-.02,19.65,3.55,27.16,10.69l130.7,121.1c3.47,3.3,7.52,6.52,11.95,9.6-4.43,3.08-8.48,6.3-11.95,9.59l-130.7,124.24c-15.02,14.28-39.3,14.25-54.28-.1l-132.72-127.11c-2.49-2.36-5.11-4.57-7.85-6.62,2.74-2.05,5.37-4.26,7.85-6.62l132.72-123.99c7.49-7.17,17.3-10.77,27.12-10.78h0Z"/>
</svg>