<?xml version="1.0" encoding="UTF-8"?>
<svg id="Layer_1" xmlns="http://www.w3.org/2000/svg" version="1.1" viewBox="0 0 641.1 403.29">
  <!-- Generator: Adobe Illustrator 29.8.1, SVG Export Plug-In . SVG Version: 2.1.1 Build 2)  -->
  <defs>
    <style>
      .st0 {
        fill: #eee;
      }
    </style>
  </defs>
  <path class="st0" d="M555.15,0c-27.61,0-67.38,14.08-88.85,31.45l-148.52,120.14c-10.94,8.84-28.2,16.38-44.65,20.29H12.47c-6.54.01-11.97,5.06-12.47,11.58v36.38c.5,6.52,5.93,11.56,12.47,11.58h260.65c16.45,3.91,33.72,11.44,44.66,20.29l148.52,120.14c21.47,17.37,61.24,31.45,88.85,31.45h73.47c6.9-.01,12.49-5.62,12.48-12.52h0v-28.08c0-6.91-5.59-12.52-12.49-12.52h-54.7c-20.68,0-50.63-10.44-66.84-23.32l-137.21-109.05c-5.77-5.35-12.02-11.46-17.76-16.15,6.16-5,11.76-10.55,17.76-16.14l137.21-109.05c16.21-12.88,46.16-23.32,66.84-23.32h54.67c6.91,0,12.52-5.59,12.52-12.49V12.52C641.11,5.62,635.53.01,628.62,0c0,0,0,0,0,0h-73.47Z"/>
</svg>