<?xml version="1.0" encoding="UTF-8"?>
<svg id="Layer_1" xmlns="http://www.w3.org/2000/svg" version="1.1" viewBox="0 0 641.1 403.29">
  <!-- Generator: Adobe Illustrator 29.8.1, SVG Export Plug-In . SVG Version: 2.1.1 Build 2)  -->
  <defs>
    <style>
      .st0 {
        fill: #eee;
      }
    </style>
  </defs>
  <path class="st0" d="M85.95,0c27.61,0,67.38,14.08,88.85,31.45l148.52,120.14c10.94,8.84,28.2,16.38,44.66,20.29h260.65c6.54.01,11.97,5.06,12.47,11.58v36.38c-.5,6.52-5.93,11.56-12.47,11.58h-260.65c-16.46,3.91-33.72,11.44-44.66,20.29l-148.52,120.14c-21.47,17.37-61.24,31.45-88.85,31.45H12.48C5.58,403.28-.01,397.68,0,390.77c0,0,0,0,0,0v-28.07c0-6.91,5.59-12.52,12.49-12.52h54.7c20.68,0,50.63-10.44,66.84-23.32l137.21-109.05c5.77-5.35,12.02-11.46,17.76-16.15-6.16-5-11.76-10.55-17.76-16.14l-137.2-109.05c-16.21-12.88-46.16-23.32-66.84-23.32H12.52C5.61,53.13,0,47.54,0,40.63c0,0,0-.02,0-.03V12.52C-.01,5.62,5.57.01,12.48,0c0,0,0,0,0,0h73.47Z"/>
</svg>