<?xml version="1.0" encoding="UTF-8"?>
<svg id="Layer_1" xmlns="http://www.w3.org/2000/svg" version="1.1" viewBox="0 0 187.6 40.21">
  <!-- Generator: Adobe Illustrator 29.8.3, SVG Export Plug-In . SVG Version: 2.1.1 Build 3)  -->
  <defs>
    <style>
      .st0 {
        fill: #f5cd4b;
      }

      .st1 {
        fill: #dc480c;
      }
    </style>
  </defs>
  <path class="st1" d="M179.39,22.22c-.19-.2-.51-.2-.71-.01l-3.14,3.02c-3.12-1.25-7.15-2.49-11.66-3.66l2.79-3.08c.19-.2.17-.52-.03-.71-.2-.19-.52-.17-.71.03l-3.15,3.47c-4.39-1.11-9.17-2.15-13.96-3.06l2.32-3.84c.14-.24.07-.54-.17-.69-.24-.14-.54-.07-.69.17l-2.52,4.16c-6.09-1.14-12.13-2.09-17.34-2.72l-.35-.04-4.24,8.45.71.09c4.45.54,10.38,1.34,16.61,2.39.04.06.09.12.16.16.08.05.17.07.26.07.11,0,.21-.05.29-.11,9.02,1.55,18.55,3.64,25.02,6.27h.02l.29.12.22-.21s0,0,.02,0l9.94-9.57c.2-.19.21-.51,0-.71v.02Z"/>
  <g>
    <path class="st0" d="M24.49,28.96c4.64-1.28,9.91-2.42,15.46-3.41l-7.48-10.8c-.16-.23-.1-.54.13-.7.22-.15.53-.1.69.13l7.75,11.18c4.83-.85,9.85-1.6,14.83-2.23l-5.52-12.05c-.12-.26,0-.55.25-.67.25-.11.54,0,.66.25l5.65,12.34c4.73-.59,9.41-1.09,13.83-1.48l-2.91-12.98c-.06-.27.11-.54.38-.6s.54.11.6.38l2.93,13.11c6.44-.56,12.28-.91,16.88-1.03l-.53-13.28c-.01-.27.2-.51.48-.52.26-.01.51.21.52.48l.53,13.29c1.02-.02,2-.03,2.9-.03,5.14,0,11.97.35,19.35.96l3.04-13.09c.06-.27.33-.44.6-.38.27.07.44.34.37.6l-3,12.95c4.38.38,8.94.84,13.44,1.38l6.04-12.02c.12-.25.42-.35.67-.23.24.13.34.43.22.67l-6.18,12.33s-.04.04-.06.06c-.03.05-.07.1-.12.13-.01.01-.01.02-.02.02-.08.05-.16.08-.25.08-.02,0-.1-.01-.12-.01-12.54-1.51-25.55-2.45-33.98-2.45-1.03,0-2.15.01-3.34.04-.01,0-.02.01-.03.01h-.02s-.01-.01-.02-.01c-15.39.39-45.55,3.32-64.6,8.61.06-.02.12-.06.17-.1.2-.19.21-.51.02-.71l-.21-.22h0Z"/>
    <path class="st0" d="M24.7,29.18c.19.2.18.52-.02.71-.05.04-.11.08-.17.1-.02.01-.04.01-.07.02h-.11c-.13,0-.26-.05-.36-.16l-.56-.6c.26-.07.51-.14.78-.22.1-.03.2-.05.3-.08l.21.22h0Z"/>
    <path class="st0" d="M23.97,29.86c.1.11.23.16.36.16h.09c-2.19.63-4.02,1.19-5.59,1.75-.06.02-.13.03-.2.03-.21,0-.43-.1-.51-.3-.09-.25-.04-.51.21-.61.01-.01.09-.04.1-.04,1.46-.52,3.09-1.03,4.98-1.58l.56.6h0Z"/>
    <path class="st0" d="M15.3,19.08l9.19,9.88c-.1.03-.2.05-.3.08-.27.08-.52.15-.78.22l-8.84-9.5c-.19-.2-.18-.51.03-.7.2-.19.51-.18.7.02Z"/>
  </g>
  <g>
    <path class="st0" d="M0,15.15v-1.03h2.33v1.03H0Z"/>
    <path class="st0" d="M4.22,13.15c0-.39.08-.65.24-.8.16-.14.47-.21.94-.21h2.65c.47,0,.78.07.94.21s.24.41.24.8v.33c0,.25-.04.44-.11.58s-.26.29-.55.47l-3.03,1.84h3v-.76l.95.27v.41c0,.39-.08.65-.24.8-.16.14-.47.21-.94.21H3.96v-.47c0-.23.05-.4.14-.53.1-.12.27-.26.51-.41l3.57-2.2v-.67h-2.94v1.06l-1.02-.26s0-.67,0-.67Z"/>
    <path class="st0" d="M11.49,13.36c0-.47.08-.79.25-.96.16-.17.47-.26.93-.26h3.49c.46,0,.77.09.94.26.16.17.25.49.25.96v2.72c0,.47-.08.79-.25.96-.16.17-.48.26-.94.26h-3.49c-.46,0-.77-.09-.93-.26s-.25-.49-.25-.96v-2.72ZM12.57,16.37h3.69v-3.35h-3.69v3.35Z"/>
  </g>
  <g>
    <path class="st0" d="M20.94,10.65v-1.03h2.33v1.03h-2.33Z"/>
    <path class="st0" d="M27.31,12.8v-4.18h-1.1v-.69l2.19-.33v5.2s-1.09,0-1.09,0Z"/>
    <path class="st0" d="M32.44,8.86c0-.47.08-.79.25-.96.16-.17.47-.26.93-.26h3.49c.46,0,.77.09.94.26.16.17.25.49.25.96v2.72c0,.47-.08.79-.25.96s-.48.26-.94.26h-3.49c-.46,0-.77-.09-.93-.26s-.25-.49-.25-.96v-2.72ZM33.52,11.87h3.69v-3.35h-3.69s0,3.35,0,3.35Z"/>
  </g>
  <g>
    <path class="st0" d="M117.25,32.45v-2.93h-.77v-.48l1.53-.23v3.64h-.76Z"/>
    <path class="st0" d="M120.84,29.69c0-.33.06-.56.17-.68s.33-.18.65-.18h2.44c.32,0,.54.06.65.18.12.12.17.34.17.68v1.9c0,.33-.06.56-.17.67-.12.12-.33.18-.65.18h-2.44c-.32,0-.54-.06-.65-.18-.12-.12-.17-.34-.17-.67,0,0,0-1.9,0-1.9ZM121.6,31.8h2.58v-2.35h-2.58v2.35Z"/>
    <path class="st0" d="M126.25,29.69c0-.33.06-.56.17-.68.12-.12.33-.18.65-.18h2.44c.32,0,.54.06.66.18.12.12.17.34.17.68v1.9c0,.33-.06.56-.17.67-.12.12-.33.18-.66.18h-2.44c-.32,0-.54-.06-.65-.18-.12-.12-.17-.34-.17-.67,0,0,0-1.9,0-1.9ZM127.01,31.8h2.58v-2.35h-2.58s0,2.35,0,2.35Z"/>
  </g>
  <g>
    <path class="st0" d="M97.6,27.19c.33,0,.54.05.66.15.11.1.17.29.17.56v.33c0,.21-.05.37-.15.47-.1.1-.28.18-.54.23.27.03.46.1.59.22.13.12.19.28.19.5v.38c0,.29-.06.5-.19.61-.13.11-.36.17-.69.17h-2.31c-.33,0-.56-.06-.68-.17-.13-.11-.19-.31-.19-.61v-.38c0-.22.06-.38.19-.5.13-.12.32-.19.58-.22-.26-.05-.43-.13-.54-.23-.1-.1-.16-.26-.16-.47v-.33c0-.27.06-.46.17-.56s.33-.15.66-.15h2.25,0ZM97.4,29.23h-1.85c-.14,0-.23.02-.27.06-.05.04-.07.13-.07.27v.26c0,.13.02.22.06.26s.14.06.28.06h1.85c.14,0,.23-.02.27-.06.04-.04.07-.13.07-.26v-.26c0-.13-.02-.22-.07-.27-.05-.04-.14-.06-.27-.06ZM97.32,27.8h-1.69c-.14,0-.23.02-.28.07-.05.04-.07.13-.07.26v.18c0,.13.02.22.07.26s.14.07.28.07h1.69c.14,0,.23-.02.28-.07.05-.04.07-.13.07-.26v-.18c0-.13-.02-.22-.07-.27-.05-.04-.14-.07-.28-.07h0Z"/>
    <path class="st0" d="M99.84,28.04c0-.33.06-.56.17-.68s.33-.18.65-.18h2.44c.32,0,.54.06.65.18.12.12.17.34.17.68v1.9c0,.33-.06.56-.17.67-.11.12-.33.18-.65.18h-2.44c-.32,0-.54-.06-.65-.18-.12-.12-.17-.34-.17-.67v-1.9ZM100.6,30.15h2.58v-2.35h-2.58v2.35Z"/>
  </g>
  <g>
    <path class="st0" d="M74.63,28.62c.28-.04.55-.07.81-.09.27-.02.53-.03.78-.03.58,0,.98.07,1.2.2.22.14.32.38.32.73v.49c0,.3-.1.52-.3.67-.2.14-.51.22-.94.22h-1.53c-.46,0-.77-.08-.94-.24-.17-.16-.25-.45-.25-.88v-.48c0-.67.23-1.19.7-1.56.47-.37,1.12-.55,1.97-.55h.1s.09,0,.15.01l.5.58h-.23c-.77,0-1.32.07-1.66.21-.34.14-.57.38-.69.72h.01ZM74.58,29.17s0,.06-.01.09,0,.07,0,.12c0,.35.05.56.14.65.09.08.3.12.61.12h1.01c.25,0,.42-.03.51-.09.09-.06.14-.18.14-.34v-.2c0-.17-.05-.28-.16-.34s-.32-.09-.64-.09c-.26,0-.52,0-.79.02-.27.01-.54.04-.81.06Z"/>
    <path class="st0" d="M79.09,28.04c0-.33.06-.56.17-.68s.33-.18.65-.18h2.44c.32,0,.54.06.65.18.12.12.17.34.17.68v1.9c0,.33-.06.56-.17.67-.11.12-.33.18-.65.18h-2.44c-.32,0-.54-.06-.65-.18-.12-.12-.17-.34-.17-.67v-1.9ZM79.85,30.15h2.58v-2.35h-2.58v2.35Z"/>
  </g>
  <g>
    <path class="st0" d="M54.63,33.35v-.84h-2.74v-.6l2.71-2.25h.79v2.25h.87v.6h-.87v.84h-.76ZM54.63,31.91v-1.62l-1.98,1.62h1.98Z"/>
    <path class="st0" d="M57.39,30.56c0-.33.06-.56.17-.68.11-.12.33-.18.65-.18h2.44c.32,0,.54.06.65.18.12.12.17.34.17.68v1.9c0,.33-.06.56-.17.67-.11.12-.33.18-.65.18h-2.44c-.32,0-.54-.06-.65-.18-.12-.12-.17-.34-.17-.67v-1.9ZM58.15,32.66h2.58v-2.35h-2.58v2.35Z"/>
  </g>
  <g>
    <path class="st0" d="M30.25,35.06c0-.27.06-.46.17-.56.11-.1.33-.15.66-.15h1.86c.33,0,.55.05.66.15.11.1.17.29.17.56v.23c0,.18-.03.31-.08.4-.05.09-.18.2-.39.33l-2.12,1.29h2.1v-.53l.67.19v.29c0,.27-.06.46-.17.56-.11.1-.33.15-.66.15h-3.04v-.33c0-.16.03-.28.1-.37s.19-.18.36-.29l2.5-1.54v-.47h-2.06v.75l-.71-.18v-.47h-.02Z"/>
    <path class="st0" d="M35.34,35.21c0-.33.06-.56.17-.68.11-.12.33-.18.65-.18h2.44c.32,0,.54.06.65.18.12.12.17.34.17.68v1.9c0,.33-.06.56-.17.67-.11.12-.33.18-.65.18h-2.44c-.32,0-.54-.06-.65-.18-.12-.12-.17-.34-.17-.67v-1.9ZM36.1,37.31h2.58v-2.35h-2.58v2.35Z"/>
  </g>
  <path class="st0" d="M21.43,37.46c0-.33.06-.56.17-.68.12-.12.33-.18.65-.18h2.44c.32,0,.54.06.65.18.11.12.17.34.17.68v1.9c0,.33-.06.56-.17.67-.12.12-.33.18-.65.18h-2.44c-.32,0-.54-.06-.65-.18-.11-.12-.17-.34-.17-.67v-1.9ZM22.19,39.56h2.58v-2.35h-2.58v2.35Z"/>
  <g>
    <path class="st0" d="M43.74,6.06v-1.03h2.33v1.03s-2.33,0-2.33,0Z"/>
    <path class="st0" d="M49.35,8.3l2.78-4.37h-3.41v1.11l-1.09-.19v-1.8h5.73v.83l-2.7,4.42s-1.31,0-1.31,0Z"/>
  </g>
  <g>
    <path class="st0" d="M61.59,3.91v-1.03h2.33v1.03s-2.33,0-2.33,0Z"/>
    <path class="st0" d="M65.72,3.76l.29-2.86h4.46l-.09.88h-3.6l-.12,1c.44-.05.83-.08,1.17-.1s.64-.03.92-.03c.85,0,1.49.15,1.92.44s.64.73.64,1.31-.22,1.05-.67,1.32-1.17.41-2.17.41c-.52,0-1-.02-1.42-.05-.42-.04-.78-.09-1.07-.16l-.26-1c.5.09.98.16,1.43.2s.88.07,1.29.07c.65,0,1.1-.06,1.37-.19.26-.13.4-.34.4-.65,0-.29-.13-.49-.39-.62-.26-.12-.69-.19-1.3-.19-.39,0-.82.02-1.29.05-.47.04-.97.09-1.5.16h-.01Z"/>
  </g>
  <g>
    <path class="st0" d="M82.79,3.01v-1.03h2.33v1.03h-2.33Z"/>
    <path class="st0" d="M87.9,5.16c-.47,0-.78-.07-.94-.21s-.24-.41-.24-.8v-.42l1.06-.22v.72h2.78c.2,0,.33-.03.4-.09s.1-.19.1-.37v-.38c0-.19-.03-.31-.1-.38-.07-.06-.2-.1-.4-.1h-1.74v-.84h1.55c.2,0,.33-.03.39-.09.06-.06.1-.19.1-.38v-.26c0-.19-.03-.32-.1-.38-.06-.06-.2-.09-.39-.09h-2.55v.64l-1.02-.19v-.32c0-.39.08-.65.24-.8.16-.14.47-.21.94-.21h2.79c.47,0,.78.07.94.21.16.14.24.41.24.8v.47c0,.3-.07.53-.22.67-.15.15-.41.25-.78.31.41.04.72.14.91.31s.29.41.29.74v.54c0,.42-.09.71-.27.87s-.51.24-.98.24h-3Z"/>
  </g>
  <g>
    <path class="st0" d="M112.15,4.36v-1.03h2.33v1.03h-2.33Z"/>
    <path class="st0" d="M118.51,6.51V2.33h-1.1v-.69l2.19-.33v5.2s-1.09,0-1.09,0Z"/>
  </g>
  <path class="st0" d="M130.76,4.27c0-.47.08-.79.25-.96.16-.17.47-.26.93-.26h3.49c.46,0,.77.09.93.26.17.17.25.49.25.96v2.72c0,.47-.08.79-.25.96-.16.17-.48.26-.93.26h-3.49c-.46,0-.77-.09-.93-.26-.16-.17-.25-.49-.25-.96,0,0,0-2.72,0-2.72ZM131.84,7.28h3.69v-3.35h-3.69v3.35Z"/>
  <g>
    <path class="st1" d="M149.38,7.88v1.59h1.55v.41h-1.55v1.59h-.42v-1.59h-1.55v-.41h1.55v-1.59h.42Z"/>
    <path class="st1" d="M155.21,11.46v-4.18h-1.1v-.69l2.19-.33v5.2h-1.09Z"/>
  </g>
  <g>
    <path class="st1" d="M163.93,11.78v1.59h1.55v.41h-1.55v1.59h-.42v-1.59h-1.55v-.41h1.55v-1.59h.42Z"/>
    <path class="st1" d="M167.62,11.21c0-.39.08-.65.24-.8.16-.14.47-.21.94-.21h2.65c.47,0,.78.07.94.21s.24.41.24.8v.33c0,.25-.04.44-.11.58-.08.13-.26.29-.55.47l-3.03,1.84h3v-.76l.95.27v.41c0,.39-.08.65-.24.8-.16.14-.47.21-.94.21h-4.34v-.47c0-.23.05-.4.14-.53.1-.12.27-.26.51-.41l3.57-2.2v-.67h-2.94v1.06l-1.02-.26v-.67h0Z"/>
  </g>
  <g>
    <path class="st1" d="M178.78,15.48v1.59h1.55v.41h-1.55v1.59h-.42v-1.59h-1.55v-.41h1.55v-1.59h.42Z"/>
    <path class="st1" d="M183.35,19.06c-.47,0-.78-.07-.94-.21s-.24-.41-.24-.8v-.42l1.06-.22v.72h2.78c.2,0,.33-.03.4-.09.07-.06.1-.19.1-.37v-.38c0-.19-.03-.31-.1-.38-.07-.06-.2-.1-.4-.1h-1.74v-.84h1.55c.2,0,.33-.03.39-.09s.1-.19.1-.38v-.26c0-.19-.03-.32-.1-.38s-.2-.09-.39-.09h-2.55v.64l-1.02-.19v-.32c0-.39.08-.65.24-.8.16-.14.47-.21.94-.21h2.79c.46,0,.78.07.94.21s.24.41.24.8v.47c0,.3-.07.53-.22.67-.15.15-.41.25-.78.31.41.04.72.14.91.31s.29.41.29.74v.54c0,.42-.09.71-.27.87-.18.16-.51.24-.98.24h-3,0Z"/>
  </g>
  <g>
    <path class="st0" d="M30.66,32.46c-.38,0-.65-.3-.65-.71s.28-.71.67-.71.66.29.66.71-.27.71-.67.71h-.01Z"/>
    <path class="st0" d="M42.58,29.68c-.38,0-.65-.3-.65-.71s.28-.71.67-.71.66.29.66.71-.27.71-.67.71h0Z"/>
    <path class="st0" d="M55.09,27.68c-.38,0-.65-.3-.65-.71s.28-.71.67-.71.66.29.66.71-.27.71-.67.71h0Z"/>
    <path class="st0" d="M65.27,26.27c-.38,0-.65-.3-.65-.71s.28-.71.67-.71.66.29.66.71-.27.71-.67.71h-.01Z"/>
    <path class="st0" d="M77.71,25.22c-.38,0-.65-.3-.65-.71s.28-.71.67-.71.66.29.66.71-.27.71-.67.71h-.01Z"/>
    <path class="st0" d="M89.02,24.59c-.38,0-.65-.3-.65-.71s.28-.71.67-.71.66.29.66.71-.27.71-.67.71h-.01Z"/>
    <path class="st0" d="M99.84,24.85c-.38,0-.65-.3-.65-.71s.28-.71.67-.71.66.29.66.71-.27.71-.67.71h-.01Z"/>
    <path class="st0" d="M111.66,25.56c-.38,0-.65-.3-.65-.71s.28-.71.67-.71.66.29.66.71-.27.71-.67.71h-.01Z"/>
    <path class="st0" d="M125.46,26.64c-.38,0-.65-.3-.65-.71s.28-.71.67-.71.66.29.66.71-.27.71-.67.71h-.01Z"/>
  </g>
</svg>