<?xml version="1.0" encoding="UTF-8"?>
<svg id="Layer_1" xmlns="http://www.w3.org/2000/svg" version="1.1" xmlns:xlink="http://www.w3.org/1999/xlink" viewBox="0 0 495.64 124.27">
  <!-- Generator: Adobe Illustrator 29.8.3, SVG Export Plug-In . SVG Version: 2.1.1 Build 3)  -->
  <defs>
    <style>
      .st0 {
        fill: url(#linear-gradient2);
      }

      .st1 {
        fill: url(#linear-gradient10);
      }

      .st2 {
        fill: url(#linear-gradient21);
      }

      .st3 {
        fill: url(#linear-gradient1);
      }

      .st4 {
        fill: url(#linear-gradient9);
      }

      .st5 {
        fill: url(#linear-gradient18);
      }

      .st6 {
        fill: url(#linear-gradient23);
      }

      .st7 {
        fill: url(#linear-gradient8);
      }

      .st8 {
        fill: url(#linear-gradient11);
      }

      .st9 {
        fill: url(#linear-gradient16);
      }

      .st10 {
        fill: url(#linear-gradient24);
      }

      .st11 {
        fill: url(#linear-gradient22);
      }

      .st12 {
        fill: url(#linear-gradient19);
      }

      .st13 {
        fill: url(#linear-gradient12);
      }

      .st14 {
        fill: url(#linear-gradient7);
      }

      .st15 {
        fill: url(#linear-gradient20);
      }

      .st16 {
        fill: url(#linear-gradient4);
      }

      .st17 {
        fill: url(#linear-gradient14);
      }

      .st18 {
        fill: url(#linear-gradient5);
      }

      .st19 {
        fill: url(#linear-gradient3);
      }

      .st20 {
        fill: url(#linear-gradient15);
      }

      .st21 {
        fill: url(#linear-gradient17);
      }

      .st22 {
        fill: url(#linear-gradient6);
      }

      .st23 {
        fill: url(#linear-gradient13);
      }

      .st24 {
        fill: url(#linear-gradient);
      }
    </style>
    <linearGradient id="linear-gradient" x1="337.48" y1="70.63" x2="495.64" y2="70.63" gradientUnits="userSpaceOnUse">
      <stop offset="0" stop-color="#c1272d"/>
      <stop offset="1" stop-color="#ba1c24"/>
    </linearGradient>
    <linearGradient id="linear-gradient1" x1="365.23" y1="18.69" x2="373.85" y2="18.69" xlink:href="#linear-gradient"/>
    <linearGradient id="linear-gradient2" x1="416.12" y1="30.02" x2="426.62" y2="30.02" xlink:href="#linear-gradient"/>
    <linearGradient id="linear-gradient3" x1="452.97" y1="45.68" x2="466.41" y2="45.68" xlink:href="#linear-gradient"/>
    <linearGradient id="linear-gradient4" x1="470.66" y1="44.86" x2="481.04" y2="44.86" xlink:href="#linear-gradient"/>
    <linearGradient id="linear-gradient5" x1="359.59" y1="84.05" x2="368.22" y2="84.05" gradientUnits="userSpaceOnUse">
      <stop offset="0" stop-color="#333"/>
      <stop offset="1" stop-color="#1a1a1a"/>
    </linearGradient>
    <linearGradient id="linear-gradient6" x1="25.44" y1="90.88" x2="327.47" y2="90.88" xlink:href="#linear-gradient5"/>
    <linearGradient id="linear-gradient7" x1="0" y1="66.94" x2="340.64" y2="66.94" xlink:href="#linear-gradient5"/>
    <linearGradient id="linear-gradient8" x1="8.41" y1="41.94" x2="15.08" y2="41.94" xlink:href="#linear-gradient5"/>
    <linearGradient id="linear-gradient9" x1="18.45" y1="40.78" x2="29.23" y2="40.78" xlink:href="#linear-gradient5"/>
    <linearGradient id="linear-gradient10" x1="32.12" y1="40.95" x2="43.15" y2="40.95" xlink:href="#linear-gradient5"/>
    <linearGradient id="linear-gradient11" x1="78.81" y1="26.48" x2="87.44" y2="26.48" xlink:href="#linear-gradient5"/>
    <linearGradient id="linear-gradient12" x1="91.24" y1="26.51" x2="102.26" y2="26.51" xlink:href="#linear-gradient5"/>
    <linearGradient id="linear-gradient13" x1="145.02" y1="16.16" x2="155.93" y2="16.16" xlink:href="#linear-gradient5"/>
    <linearGradient id="linear-gradient14" x1="200.06" y1="9.99" x2="210.44" y2="9.99" xlink:href="#linear-gradient5"/>
    <linearGradient id="linear-gradient15" x1="261.98" y1="8.3" x2="272.48" y2="8.3" xlink:href="#linear-gradient5"/>
    <linearGradient id="linear-gradient16" x1="315.7" y1="10.54" x2="324.33" y2="10.54" xlink:href="#linear-gradient5"/>
    <linearGradient id="linear-gradient17" x1="339.87" y1="15.18" x2="350.89" y2="15.18" xlink:href="#linear-gradient5"/>
    <linearGradient id="linear-gradient18" x1="83.13" y1="117.83" x2="91.69" y2="117.83" xlink:href="#linear-gradient5"/>
    <linearGradient id="linear-gradient19" x1="187.98" y1="99.6" x2="196.05" y2="99.6" xlink:href="#linear-gradient5"/>
    <linearGradient id="linear-gradient20" x1="198.4" y1="99.48" x2="206.96" y2="99.48" xlink:href="#linear-gradient5"/>
    <linearGradient id="linear-gradient21" x1="285.59" y1="101.39" x2="292.29" y2="101.39" xlink:href="#linear-gradient5"/>
    <linearGradient id="linear-gradient22" x1="295.24" y1="101.42" x2="303.8" y2="101.42" xlink:href="#linear-gradient5"/>
    <linearGradient id="linear-gradient23" x1="306.07" y1="101.42" x2="314.63" y2="101.42" xlink:href="#linear-gradient5"/>
    <linearGradient id="linear-gradient24" x1="316.99" y1="101.42" x2="332.84" y2="101.42" xlink:href="#linear-gradient5"/>
  </defs>
  <path class="st24" d="M337.48,65.28c36.9,4.11,70.73,10.78,99.22,19.73,15.94,5.01,29.57,10.52,40.76,16.4l3.46-2.92,14.71-12.79c-.95-.63-1.9-1.26-2.87-1.88l-15.75,13.69c-9.65-4.94-20.94-9.58-33.8-13.87l15.98-17.05c-1.8-.75-3.62-1.49-5.47-2.22l-16.3,17.4c-5.27-1.65-10.72-3.22-16.33-4.71l9.49-11.7c-1.15-.32-2.32-.64-3.48-.95l-9.52,11.73c-5.89-1.52-11.96-2.94-18.19-4.29l13.56-20.69c-1.12-.3-2.25-.59-3.38-.88l-13.65,20.83c-6.85-1.43-13.9-2.76-21.1-3.97l6.87-12.68c-1.14-.2-2.29-.4-3.44-.59l-6.88,12.71c-6.62-1.08-13.37-2.08-20.25-2.97l10.1-23.23c-1.12-.18-2.25-.35-3.37-.53l-10.14,23.33c-3.01-.38-6.04-.74-9.09-1.08l-1.14,3.19Z"/>
  <path class="st3" d="M373.85,26.69h-8.63v-1.63h3.32v-10.68h-3.32v-1.46c.45,0,.93-.04,1.45-.11.51-.08.9-.18,1.17-.33.33-.18.59-.4.78-.68.19-.27.3-.64.33-1.11h1.66v14.36h3.25v1.63Z"/>
  <path class="st0" d="M425.45,30.31c.34.31.62.69.84,1.16.22.46.33,1.06.33,1.8s-.13,1.39-.4,2c-.26.61-.63,1.14-1.11,1.58-.54.5-1.17.87-1.89,1.11-.73.24-1.52.36-2.38.36s-1.76-.1-2.61-.31c-.86-.21-1.56-.44-2.11-.69v-2.24h.16c.61.4,1.32.73,2.14,1,.82.26,1.61.4,2.38.4.45,0,.93-.08,1.43-.23.51-.15.92-.37,1.23-.66.33-.31.57-.66.73-1.04.16-.38.24-.86.24-1.43s-.09-1.04-.27-1.42c-.18-.37-.43-.67-.75-.88-.32-.22-.71-.37-1.17-.46-.46-.08-.95-.12-1.48-.12h-.96v-1.78h.75c1.08,0,1.95-.23,2.6-.68.65-.45.97-1.12.97-1.99,0-.38-.08-.72-.25-1.01-.17-.29-.39-.53-.69-.71-.31-.19-.63-.31-.99-.39-.35-.07-.74-.11-1.19-.11-.68,0-1.4.12-2.16.36-.76.24-1.48.59-2.16,1.03h-.11v-2.24c.51-.25,1.18-.48,2.03-.69.84-.21,1.66-.32,2.46-.32s1.46.07,2.05.21c.59.14,1.13.37,1.61.68.51.34.9.76,1.17,1.24.26.49.4,1.05.4,1.7,0,.89-.31,1.66-.94,2.32-.63.66-1.36,1.08-2.21,1.25v.15c.34.06.74.18,1.18.36.44.18.82.41,1.12.68Z"/>
  <path class="st19" d="M466.41,46.54h-5.83v5.83h-1.78v-5.83h-5.83v-1.71h5.83v-5.83h1.78v5.83h5.83v1.71Z"/>
  <path class="st16" d="M481.04,47.6c0,.74-.14,1.45-.41,2.13-.27.68-.64,1.25-1.11,1.71-.51.5-1.12.88-1.83,1.15-.71.27-1.53.4-2.47.4-.87,0-1.71-.09-2.51-.27-.81-.18-1.49-.4-2.04-.66v-2.26h.15c.59.37,1.27.69,2.05.95.79.26,1.56.39,2.31.39.51,0,1-.07,1.47-.21.48-.14.9-.39,1.27-.75.31-.31.55-.67.71-1.1.16-.43.24-.92.24-1.49s-.09-1.01-.28-1.39c-.19-.38-.45-.68-.79-.91-.37-.27-.82-.46-1.35-.57-.53-.11-1.13-.17-1.78-.17s-1.23.04-1.81.13c-.58.08-1.08.17-1.5.26v-8.21h9.59v1.87h-7.52v4.24c.31-.03.62-.05.94-.06.32-.01.6-.02.83-.02.86,0,1.62.07,2.27.22.65.15,1.25.4,1.79.78.57.39,1.01.9,1.33,1.52.31.62.47,1.4.47,2.33Z"/>
  <path class="st18" d="M368.22,79.41c-1.16-.19-2.32-.37-3.48-.55l-1.5,3.11-2.97,5.49h0l-.68,1.25c1.16.17,2.31.35,3.47.53l2.99-5.53,2.17-4.29Z"/>
  <path class="st22" d="M327.47,74.27l-5.62-.64c-23.64-2.14-48.46-3.25-73.89-3.25-71.17,0-137.51,8.67-186.82,24.4-13.75,4.39-25.73,9.19-35.7,14.23l2.66,2.37c9.59-4.74,21.04-9.29,34.04-13.45,1.34-.43,2.69-.85,4.06-1.26l5.23,6.03c1.16-.34,2.32-.68,3.49-1.02l-5.25-6.06c34.23-10.08,75.92-16.92,121.36-20.03l1.34,7.16c1.1-.08,2.21-.15,3.32-.22l-1.34-7.17c17.41-1.12,35.35-1.7,53.61-1.7,25.03,0,49.46,1.08,72.74,3.16l-2.51,7.02c1.9.17,3.78.34,5.66.51l.49-1.36,3.13-8.75h0Z"/>
  <path class="st14" d="M335.04,36.76l-8.6,24.06c-5.46-.52-10.98-.98-16.56-1.4l6.42-24.61c-1.11-.1-2.22-.2-3.34-.3l-6.43,24.66c-6.75-.47-13.59-.86-20.48-1.16l2.05-13.59c-1.1-.05-2.22-.09-3.32-.13l-2.05,13.58c-5.27-.21-10.58-.38-15.92-.5l1.75-25.34c-1.1-.03-2.2-.05-3.3-.08l-1.75,25.35c-5.16-.09-10.34-.14-15.55-.14-2.22,0-4.43,0-6.64.03l-.33-13.68c-1.1,0-2.2,0-3.3.02l.33,13.69c-7.95.09-15.84.28-23.64.59l-2.84-25.16c-1.1.05-2.21.1-3.31.16l2.83,25.13c-14.82.64-29.34,1.66-43.46,3.04l-8.1-23.97c-1.12.13-2.24.27-3.35.41l8.07,23.9c-16.55,1.7-32.53,3.91-47.73,6.6l-12.21-21.69c-1.13.25-2.26.49-3.37.74l12.15,21.57c-16.52,3.03-32.1,6.63-46.47,10.78l-16.26-17.74c-1.87.68-3.72,1.38-5.55,2.09l15.95,17.39c-.84.26-1.68.51-2.5.77-15.56,4.89-28.99,10.29-40.16,16.09l-15.19-13.36c-.96.62-1.92,1.25-2.86,1.88l10.9,9.59h.01s4.02,3.55,4.02,3.55c-.01,0-.02.01-.03.02l2.58,2.3c11.37-6.08,25.32-11.76,41.72-16.91,50.39-15.83,117.43-24.54,188.75-24.54,26.33,0,52.07,1.19,76.61,3.49h0s6.39.55,6.39.55l1.12-3.13,8.56-23.94c-1.86-.23-3.73-.46-5.6-.68Z"/>
  <path class="st7" d="M15.08,42.91h-6.68v-1.94h6.68v1.94Z"/>
  <path class="st4" d="M29.23,48.92h-10.79v-2.24c.75-.64,1.5-1.28,2.25-1.93.75-.64,1.45-1.28,2.1-1.92,1.37-1.33,2.31-2.38,2.82-3.16.5-.78.76-1.62.76-2.53,0-.83-.27-1.47-.82-1.94-.55-.47-1.31-.7-2.28-.7-.65,0-1.35.12-2.11.34-.76.23-1.5.58-2.22,1.05h-.11v-2.25c.51-.25,1.18-.48,2.03-.68.85-.21,1.66-.31,2.46-.31,1.63,0,2.91.39,3.84,1.18.93.79,1.39,1.86,1.39,3.21,0,.61-.08,1.17-.23,1.69-.15.53-.38,1.02-.68,1.49-.28.44-.6.88-.98,1.31s-.83.9-1.37,1.42c-.76.75-1.55,1.48-2.37,2.18-.81.7-1.57,1.35-2.28,1.95h8.57v1.83Z"/>
  <path class="st1" d="M43.15,40.94c0,2.86-.45,4.96-1.34,6.3-.9,1.34-2.29,2.01-4.17,2.01s-3.31-.68-4.19-2.03c-.88-1.36-1.32-3.44-1.32-6.25s.45-4.93,1.34-6.28c.89-1.35,2.28-2.03,4.17-2.03s3.31.69,4.19,2.06c.88,1.37,1.32,3.45,1.32,6.23ZM40.33,45.8c.25-.58.42-1.26.51-2.04.09-.78.13-1.72.13-2.82s-.04-2.03-.13-2.83c-.09-.8-.26-1.48-.52-2.03-.25-.55-.59-.96-1.02-1.24-.43-.28-.99-.42-1.66-.42s-1.22.14-1.66.42c-.44.28-.79.7-1.04,1.26-.24.53-.41,1.21-.5,2.06-.09.85-.13,1.78-.13,2.79,0,1.11.04,2.04.12,2.79.08.75.25,1.42.5,2.01.24.56.57.98,1,1.27.43.29,1,.44,1.72.44.67,0,1.23-.14,1.67-.42.44-.28.78-.7,1.03-1.26Z"/>
  <path class="st8" d="M87.44,34.48h-8.63v-1.63h3.32v-10.68h-3.32v-1.45c.45,0,.93-.04,1.44-.11.51-.08.9-.18,1.17-.33.33-.18.59-.4.78-.68.19-.28.3-.64.33-1.11h1.66v14.36h3.25v1.63Z"/>
  <path class="st13" d="M102.26,26.5c0,2.86-.45,4.96-1.34,6.3-.89,1.34-2.28,2.01-4.17,2.01s-3.31-.68-4.19-2.03c-.88-1.36-1.32-3.44-1.32-6.25s.45-4.93,1.34-6.28c.89-1.35,2.28-2.03,4.17-2.03s3.31.69,4.19,2.06c.88,1.37,1.32,3.45,1.32,6.23ZM99.45,31.36c.25-.58.42-1.26.51-2.04.09-.78.13-1.72.13-2.82s-.04-2.03-.13-2.83c-.09-.8-.26-1.48-.52-2.03-.25-.55-.59-.96-1.02-1.24-.43-.28-.99-.42-1.66-.42s-1.23.14-1.67.42c-.44.28-.79.7-1.04,1.26-.24.53-.41,1.21-.5,2.06-.09.85-.13,1.78-.13,2.79,0,1.11.04,2.04.12,2.79.08.75.25,1.42.5,2.01.24.56.57.98,1,1.27.43.29,1,.44,1.72.44.67,0,1.23-.14,1.67-.42.44-.28.79-.7,1.03-1.26Z"/>
  <path class="st23" d="M155.93,10.58l-7.21,13.55h-2.29l7.67-14.06h-9.08v-1.87h10.91v2.39Z"/>
  <path class="st17" d="M210.44,12.73c0,.74-.14,1.45-.41,2.13-.27.68-.64,1.25-1.11,1.71-.51.5-1.13.88-1.84,1.15-.71.27-1.53.4-2.47.4-.87,0-1.71-.09-2.51-.27-.81-.18-1.49-.4-2.04-.66v-2.26h.15c.58.37,1.27.69,2.06.95.79.26,1.55.39,2.31.39.51,0,1-.07,1.47-.21.47-.14.9-.39,1.27-.75.31-.31.55-.68.71-1.1.16-.43.24-.92.24-1.49s-.09-1.01-.28-1.39c-.19-.38-.45-.68-.79-.91-.37-.27-.82-.46-1.35-.57-.53-.11-1.13-.17-1.78-.17s-1.23.04-1.81.13c-.58.09-1.08.17-1.5.26V1.85h9.59v1.87h-7.53v4.24c.31-.03.62-.05.94-.06.32-.02.6-.02.83-.02.86,0,1.62.07,2.27.22.65.15,1.25.4,1.79.77.57.39,1.01.9,1.33,1.52.31.62.47,1.4.47,2.33Z"/>
  <path class="st20" d="M271.3,8.59c.34.31.62.69.85,1.16.22.46.33,1.06.33,1.8s-.13,1.4-.4,2c-.26.61-.64,1.13-1.11,1.58-.54.5-1.16.87-1.89,1.11-.72.24-1.52.36-2.38.36s-1.75-.11-2.61-.31c-.86-.21-1.56-.44-2.11-.69v-2.24h.16c.61.4,1.32.73,2.14.99.82.26,1.61.4,2.38.4.45,0,.93-.08,1.43-.22.51-.15.92-.37,1.23-.66.33-.31.57-.66.73-1.04.16-.38.24-.86.24-1.43s-.09-1.04-.27-1.42c-.18-.37-.43-.67-.75-.88-.32-.22-.71-.37-1.17-.45-.46-.08-.95-.12-1.48-.12h-.96v-1.78h.75c1.08,0,1.95-.23,2.6-.68.64-.45.97-1.12.97-1.99,0-.38-.08-.72-.25-1.01-.17-.29-.39-.53-.69-.71-.31-.19-.64-.31-.99-.39-.35-.07-.75-.11-1.19-.11-.68,0-1.4.12-2.16.37-.76.24-1.48.58-2.16,1.03h-.11V1c.51-.25,1.18-.48,2.03-.69.85-.21,1.66-.31,2.46-.31s1.46.07,2.06.21c.59.14,1.13.37,1.61.69.51.34.9.76,1.17,1.24.26.49.4,1.05.4,1.7,0,.88-.31,1.66-.94,2.32-.62.66-1.36,1.08-2.21,1.25v.15c.34.06.73.18,1.18.36.44.18.82.41,1.12.68Z"/>
  <path class="st9" d="M324.33,18.54h-8.63v-1.63h3.32V6.23h-3.32v-1.46c.45,0,.93-.04,1.45-.11s.9-.18,1.17-.33c.33-.18.59-.4.78-.68.19-.27.3-.64.33-1.11h1.66v14.36h3.25v1.63Z"/>
  <path class="st21" d="M350.89,15.17c0,2.86-.45,4.96-1.34,6.3-.9,1.34-2.29,2.01-4.17,2.01s-3.31-.68-4.19-2.03c-.88-1.36-1.32-3.44-1.32-6.25s.45-4.93,1.34-6.28c.89-1.35,2.28-2.03,4.18-2.03s3.31.69,4.19,2.06c.88,1.37,1.32,3.45,1.32,6.22ZM348.08,20.03c.25-.58.42-1.26.51-2.04.09-.78.13-1.72.13-2.82s-.04-2.03-.13-2.83c-.09-.8-.26-1.48-.52-2.03-.25-.55-.59-.96-1.02-1.24-.43-.28-.99-.42-1.66-.42s-1.23.14-1.67.42c-.44.28-.79.7-1.04,1.26-.24.53-.41,1.22-.5,2.07-.09.85-.13,1.78-.13,2.79,0,1.11.04,2.04.12,2.79.08.75.25,1.42.5,2.01.23.56.57.98,1,1.27.43.29,1,.44,1.72.44.67,0,1.23-.14,1.67-.42.44-.28.79-.7,1.03-1.26Z"/>
  <path class="st5" d="M91.69,117.82c0,2.22-.35,3.85-1.04,4.89-.7,1.04-1.77,1.56-3.24,1.56s-2.57-.53-3.26-1.58c-.68-1.05-1.03-2.67-1.03-4.86s.35-3.83,1.04-4.88c.69-1.05,1.77-1.57,3.24-1.57s2.57.53,3.26,1.6c.68,1.07,1.03,2.68,1.03,4.84ZM89.5,121.59c.2-.45.33-.98.39-1.58.07-.61.1-1.34.1-2.19s-.03-1.58-.1-2.2c-.07-.62-.2-1.15-.4-1.58-.2-.43-.46-.75-.79-.97-.34-.22-.77-.32-1.29-.32s-.95.11-1.29.32c-.34.22-.61.54-.81.98-.19.41-.32.95-.39,1.61-.07.66-.11,1.38-.11,2.17,0,.87.03,1.59.09,2.17.06.58.19,1.1.39,1.56.18.43.44.76.78.99.34.23.78.34,1.33.34.52,0,.95-.11,1.3-.32.34-.22.61-.54.8-.98Z"/>
  <path class="st12" d="M196.05,101.73c0,.58-.11,1.13-.32,1.66-.21.53-.5.97-.87,1.33-.4.39-.87.69-1.43.9-.55.21-1.19.31-1.92.31-.68,0-1.33-.07-1.95-.21-.63-.14-1.16-.31-1.59-.51v-1.75h.12c.45.29.99.53,1.6.74.61.2,1.21.3,1.8.3.39,0,.77-.06,1.14-.16.37-.11.7-.31.99-.58.24-.24.43-.52.55-.86s.19-.72.19-1.16-.07-.79-.22-1.08c-.15-.29-.35-.53-.61-.71-.29-.21-.64-.36-1.05-.44-.41-.09-.87-.13-1.38-.13s-.96.03-1.41.1c-.45.07-.84.13-1.17.2v-6.38h7.45v1.46h-5.85v3.29c.24-.02.48-.04.73-.05.25-.01.47-.02.65-.02.67,0,1.26.06,1.76.17.5.11.97.32,1.39.6.44.3.79.7,1.03,1.18.25.48.37,1.09.37,1.81Z"/>
  <path class="st15" d="M206.96,99.47c0,2.22-.35,3.85-1.04,4.89-.7,1.04-1.77,1.56-3.24,1.56s-2.57-.53-3.25-1.58c-.68-1.05-1.03-2.67-1.03-4.85s.35-3.83,1.04-4.88c.69-1.05,1.77-1.58,3.24-1.58s2.57.53,3.26,1.6c.68,1.07,1.03,2.68,1.03,4.84ZM204.77,103.24c.19-.45.33-.98.39-1.58.07-.61.1-1.34.1-2.19s-.04-1.58-.1-2.2c-.07-.62-.2-1.15-.4-1.58-.19-.43-.46-.75-.79-.96-.34-.22-.77-.32-1.29-.32s-.95.11-1.29.32c-.34.22-.61.54-.81.98-.19.41-.32.94-.39,1.6-.07.66-.1,1.38-.1,2.17,0,.86.03,1.59.09,2.17.06.58.19,1.1.39,1.56.18.43.44.76.78.99.34.23.78.34,1.33.34.52,0,.95-.11,1.3-.33.34-.22.61-.54.8-.98Z"/>
  <path class="st2" d="M292.29,107.61h-6.7v-1.26h2.58v-8.3h-2.58v-1.13c.35,0,.72-.03,1.12-.09.4-.06.7-.14.91-.25.25-.14.46-.31.6-.53.15-.21.23-.5.25-.86h1.29v11.16h2.53v1.26Z"/>
  <path class="st11" d="M303.8,101.41c0,2.22-.35,3.85-1.04,4.89-.69,1.04-1.77,1.56-3.24,1.56s-2.57-.53-3.26-1.58c-.68-1.05-1.03-2.67-1.03-4.85s.35-3.83,1.04-4.88c.69-1.05,1.77-1.58,3.24-1.58s2.57.53,3.26,1.6c.68,1.07,1.03,2.68,1.03,4.84ZM301.62,105.19c.19-.45.32-.98.39-1.58.07-.61.1-1.34.1-2.19s-.04-1.57-.1-2.2c-.07-.62-.2-1.15-.4-1.58-.19-.43-.46-.75-.79-.96-.33-.22-.77-.32-1.29-.32s-.95.11-1.29.32c-.34.22-.61.54-.81.98-.19.41-.32.94-.39,1.6-.07.66-.1,1.38-.1,2.17,0,.86.03,1.59.09,2.17.06.58.19,1.1.39,1.56.18.43.44.76.78.99.34.23.78.34,1.33.34.52,0,.95-.11,1.3-.33.34-.22.61-.54.8-.98Z"/>
  <path class="st6" d="M314.63,101.41c0,2.22-.35,3.85-1.04,4.89-.7,1.04-1.78,1.56-3.24,1.56s-2.57-.53-3.26-1.58c-.68-1.05-1.03-2.67-1.03-4.85s.35-3.83,1.04-4.88c.69-1.05,1.77-1.58,3.24-1.58s2.57.53,3.25,1.6c.68,1.07,1.03,2.68,1.03,4.84ZM312.44,105.19c.19-.45.33-.98.39-1.58.07-.61.11-1.34.11-2.19s-.04-1.57-.11-2.2c-.07-.62-.2-1.15-.4-1.58-.19-.43-.46-.75-.79-.96-.33-.22-.77-.32-1.29-.32s-.95.11-1.29.32c-.34.22-.61.54-.81.98-.19.41-.32.94-.39,1.6-.07.66-.1,1.38-.1,2.17,0,.86.03,1.59.09,2.17.06.58.19,1.1.39,1.56.18.43.44.76.78.99.33.23.78.34,1.33.34.52,0,.95-.11,1.3-.33.34-.22.61-.54.8-.98Z"/>
  <path class="st10" d="M323.1,98.66c0,1.24-.26,2.17-.79,2.77-.52.6-1.28.91-2.27.91s-1.77-.3-2.29-.91c-.52-.6-.77-1.53-.77-2.76s.26-2.16.79-2.77c.53-.6,1.28-.91,2.27-.91s1.76.3,2.28.91c.52.61.77,1.53.77,2.75ZM321.62,98.66c0-.95-.12-1.62-.37-1.99-.25-.38-.65-.57-1.2-.57s-.97.19-1.21.57c-.24.38-.37,1.04-.37,2s.12,1.63.37,2c.24.37.65.56,1.21.56s.95-.19,1.2-.56c.25-.37.37-1.04.37-2.01ZM328.85,95.22l-6.49,12.38h-1.37l6.49-12.38h1.37ZM332.84,104.17c0,1.24-.26,2.16-.79,2.77-.53.6-1.28.91-2.27.91s-1.76-.31-2.28-.92c-.51-.61-.77-1.53-.77-2.75s.26-2.16.79-2.77c.52-.6,1.28-.91,2.27-.91s1.77.3,2.29.91c.51.6.77,1.53.77,2.76ZM331.36,104.17c0-.95-.12-1.62-.37-2-.25-.38-.65-.56-1.2-.56s-.97.19-1.22.56c-.24.38-.37,1.05-.37,2s.12,1.63.37,2c.25.37.65.56,1.22.56s.95-.19,1.2-.56c.25-.37.37-1.04.37-2.01Z"/>
</svg>